# xmcd
#
# Track frame offsets: 
#        150
#        15575
#        30325
#        43525
#        57250
#        71650
#        88350
#        106650
#        121500
#        136425
#        152000
#        168225
#        182950
#        202550
#        219025
#        236500
#        252025
#        271550
#
# Disc length: 3797 seconds
#
# Revision: 1
# Processed by: cddbd v1.5.2PL0 Copyright (c) Steve Scherf et al.
# Submitted via: ExactAudioCopy v0.99pb5
#
DISCID=d90ed312
DTITLE=The Bellamy Brothers - Greatest Hits
DYEAR=1995
DGENRE=Country
TTITLE0=I Need More of You
TTITLE1=Let Your Love Flow
TTITLE2=Slippin' Away
TTITLE3=Lovin' On
TTITLE4=If I Said You Have a Beautiful Body Would You Hold it Against 
TTITLE4=Me
TTITLE5=Feelin' the Feelin'
TTITLE6=Satin Sheets
TTITLE7=Lovers Live Longer
TTITLE8=Dancin' Cowboys
TTITLE9=Kids of the Baby Boom
TTITLE10=Forget About Me
TTITLE11=I Love Her Mind
TTITLE12=World Greatest Lover
TTITLE13=Sugar Daddy
TTITLE14=For all the Wrong Reasons
TTITLE15=I'd Lie to You For Love
TTITLE16=You Ain't Just Whistlin' Dixie
TTITLE17=Do You Love as Good as You Look
EXTD=YEAR: 1995
EXTT0=
EXTT1=
EXTT2=
EXTT3=
EXTT4=
EXTT5=
EXTT6=
EXTT7=
EXTT8=
EXTT9=
EXTT10=
EXTT11=
EXTT12=
EXTT13=
EXTT14=
EXTT15=
EXTT16=
EXTT17=
PLAYORDER=
